<?xml version="1.0" standalone="no"?>
<!DOCTYPE svg PUBLIC "-//W3C//DTD SVG 20010904//EN"
 "http://www.w3.org/TR/2001/REC-SVG-20010904/DTD/svg10.dtd">
<svg version="1.0" xmlns="http://www.w3.org/2000/svg"
 width="300.000000pt" height="225.000000pt" viewBox="0 0 300.000000 225.000000"
 preserveAspectRatio="xMidYMid meet">
<metadata>
Created by potrace 1.10, written by Peter Selinger 2001-2011
</metadata>
<g transform="translate(0.000000,225.000000) scale(0.100000,-0.100000)"
fill="#000000" stroke="none">
<path d="M2083 1780 l-121 -90 -54 36 c-29 20 -54 37 -56 39 -2 1 18 16 43 31
46 30 52 38 35 49 -6 4 -31 -9 -55 -29 -43 -35 -69 -44 -79 -28 -3 5 6 15 19
22 27 14 31 25 14 35 -6 4 -21 -3 -34 -15 l-23 -22 -89 23 c-123 32 -286 32
-397 1 -330 -94 -550 -374 -561 -717 l-3 -99 -73 -54 c-40 -29 -80 -57 -89
-62 -11 -7 -12 -12 -3 -20 8 -9 31 2 92 49 49 37 83 56 85 49 12 -49 34 -143
33 -144 -12 -5 -238 -168 -242 -174 -2 -4 2 -13 9 -19 12 -10 33 1 108 55 51
36 103 76 116 88 20 17 24 18 32 6 13 -21 12 -27 -6 -34 -37 -14 -345 -239
-341 -250 2 -6 10 -12 18 -14 19 -3 345 232 341 247 -4 22 6 10 42 -49 67
-108 177 -206 299 -268 27 -13 45 -27 40 -31 -4 -5 -62 -46 -128 -93 -160
-114 -170 -122 -161 -137 6 -9 13 -8 30 7 11 10 80 61 151 112 72 51 135 96
140 101 6 4 17 3 25 -2 10 -7 11 -12 4 -15 -8 -4 -182 -126 -213 -151 -3 -2 0
-8 5 -13 7 -7 52 21 132 80 115 84 123 89 149 78 46 -19 277 -15 352 6 282 78
503 308 554 576 10 51 15 59 56 88 133 91 173 124 163 134 -7 7 -40 -12 -105
-60 l-94 -70 -7 107 c-6 112 -21 179 -56 257 -11 26 -17 51 -13 55 5 4 78 58
163 119 137 99 182 140 143 133 -7 -2 -79 -51 -160 -111 -81 -59 -153 -111
-160 -115 -7 -4 -21 10 -37 37 -14 24 -48 68 -74 98 l-49 53 124 85 c116 80
143 111 103 117 -8 1 -70 -38 -137 -87z m-568 40 c3 -5 -16 -10 -41 -12 -42
-3 -61 2 -48 14 8 8 84 6 89 -2z m45 -32 c0 -13 -29 -48 -40 -48 -14 0 -19 44
-7 52 18 12 47 9 47 -4z m-218 -43 c-4 -31 -6 -33 -24 -24 -10 6 -22 17 -25
25 -7 20 14 43 35 37 14 -3 17 -12 14 -38z m364 13 c5 4 -2 -5 -15 -20 -31
-35 -37 -35 -50 3 -17 48 -14 52 22 30 19 -11 38 -17 43 -13z m-228 -25 c1
-25 4 -55 8 -65 4 -14 0 -18 -16 -18 -12 0 -19 4 -16 8 3 5 -8 22 -24 37 l-30
29 0 -25 c0 -14 5 -30 12 -37 9 -9 7 -12 -10 -12 -19 0 -22 5 -22 44 0 24 -3
51 -6 60 -4 12 0 16 16 16 11 0 19 -4 16 -8 -3 -5 8 -22 24 -37 31 -30 37 -24
20 19 -7 20 -6 26 8 29 9 3 17 5 17 6 1 0 2 -20 3 -46z m154 -95 c-7 -16 -30
-8 -28 10 1 23 -52 30 -60 7 -5 -12 -9 -13 -21 -4 -8 7 -10 15 -5 18 4 3 23
28 42 54 l34 48 21 -63 c11 -35 19 -66 17 -70z m-420 72 c-6 -41 -19 -46 -41
-18 -19 23 -19 23 13 34 17 6 31 12 32 13 0 0 -1 -13 -4 -29z m74 -9 c18 -16
40 -33 49 -38 10 -6 13 -16 9 -28 -7 -17 -8 -17 -20 0 -12 17 -15 17 -39 1
-14 -9 -23 -21 -20 -26 4 -6 -2 -10 -12 -10 -16 0 -18 8 -15 65 2 36 6 65 9
65 3 0 20 -13 39 -29z m583 16 c6 -8 8 -17 5 -20 -7 -7 -44 14 -44 25 0 13 27
9 39 -5z m-104 -9 c24 -11 36 -48 15 -48 -5 0 -10 6 -10 14 0 19 -28 28 -51
16 -38 -21 -12 -87 29 -73 17 7 15 -16 -3 -23 -8 -4 -26 1 -40 10 -33 22 -35
78 -3 100 27 19 30 19 63 4z m-701 -65 c-8 -32 -24 -55 -24 -32 0 26 12 59 21
59 5 0 6 -12 3 -27z m106 17 c0 -5 -9 -10 -20 -10 -22 0 -43 -32 -34 -54 12
-30 74 -31 74 0 0 8 5 14 11 14 23 0 3 -45 -24 -54 -33 -12 -55 -1 -76 36 -13
23 -13 29 2 52 17 26 67 38 67 16z m-145 -20 c-13 -14 -14 -20 -5 -20 7 0 10
-3 7 -6 -4 -4 -13 -1 -22 6 -18 15 -3 40 23 40 13 0 12 -3 -3 -20z m845 3 c0
-3 -8 -11 -17 -18 -15 -11 -15 -15 -3 -30 13 -16 15 -16 30 3 10 12 22 17 29
13 9 -6 2 -18 -22 -42 -19 -19 -36 -41 -39 -49 -5 -12 -8 -13 -19 -2 -12 11
-11 15 4 23 9 6 17 16 17 23 0 24 -28 26 -42 4 -9 -13 -19 -18 -26 -14 -15 9
-16 26 -2 26 14 0 59 51 60 67 0 12 30 7 30 -4z m100 -32 c0 -10 -7 -24 -15
-31 -13 -10 -15 -9 -15 12 0 14 3 28 7 31 12 13 23 7 23 -12z m-388 -22 c181
-38 336 -186 383 -364 68 -264 -95 -541 -360 -610 -339 -88 -666 207 -616 553
41 284 316 479 593 421z m-513 -51 c27 -26 38 -45 32 -51 -6 -6 -21 4 -41 27
-18 20 -39 36 -47 36 -13 0 -13 3 -3 15 7 8 14 15 15 15 1 0 21 -19 44 -42z
m-49 -45 c0 -1 -11 2 -25 7 -16 6 -34 6 -51 0 -33 -13 -32 -14 -27 13 3 14 15
28 31 33 24 9 30 6 50 -20 12 -16 22 -31 22 -33z m953 26 c-10 -4 -33 -20 -50
-36 -22 -21 -35 -27 -42 -20 -15 15 -14 27 2 27 7 0 28 13 47 29 27 22 38 26
48 18 11 -9 10 -12 -5 -18z m117 -75 c0 -12 8 -29 18 -36 10 -7 19 -26 20 -42
l2 -30 -25 24 c-19 18 -32 22 -59 17 -48 -8 -51 2 -14 40 28 29 30 35 20 58
-12 25 -12 25 13 9 15 -10 25 -26 25 -40z m-1097 16 c12 -18 18 -19 42 -10 15
6 30 8 32 6 11 -10 -10 -26 -43 -32 -35 -6 -36 -19 -2 -26 12 -2 15 -7 9 -17
-7 -11 -16 -8 -47 13 -21 14 -44 26 -51 26 -17 0 -16 11 3 38 19 27 39 28 57
2z m1011 -26 c-52 -18 -61 -30 -40 -53 13 -14 14 -20 4 -23 -11 -4 -55 50 -46
57 2 1 22 12 46 25 23 13 42 28 42 34 0 6 7 2 15 -8 14 -18 12 -21 -21 -32z
m-1119 4 c-4 -17 -16 -45 -26 -62 -25 -41 -24 -52 10 -89 29 -31 32 -47 7 -47
-7 0 -23 -11 -36 -25 -30 -32 -23 -47 46 -93 47 -32 50 -36 66 -110 10 -42 20
-89 24 -104 5 -23 1 -30 -33 -51 -57 -36 -67 -51 -51 -77 7 -11 23 -23 35 -26
18 -5 22 -11 17 -29 -3 -13 -1 -33 6 -44 9 -18 8 -21 -9 -21 -14 0 -21 9 -26
31 -4 19 -16 34 -30 39 -17 6 -22 14 -18 29 3 13 -4 29 -20 45 -17 17 -23 32
-20 49 3 16 -2 32 -15 45 -14 14 -17 24 -10 37 10 17 -7 65 -23 65 -4 0 -2 14
4 30 9 23 9 35 0 48 -7 13 -8 24 -1 36 6 10 8 33 5 51 -3 20 0 41 9 54 8 11
12 30 9 44 -4 15 -1 28 9 36 9 8 16 28 16 45 0 20 7 37 20 46 11 8 20 26 20
41 0 23 7 39 17 39 3 0 1 -14 -2 -32z m35 -66 c0 -4 -5 -13 -11 -19 -6 -6 -8
-16 -5 -22 12 -19 25 -12 28 14 2 18 7 22 17 16 13 -8 13 -12 1 -26 -12 -14
-12 -18 1 -26 8 -5 20 -9 27 -9 6 0 12 -7 12 -15 0 -13 -4 -14 -20 -5 -11 6
-24 8 -29 5 -5 -3 -15 1 -23 8 -7 7 -21 16 -30 19 -14 6 -15 11 -5 37 10 28
37 44 37 23z m-100 -24 c0 -19 -18 -43 -25 -36 -9 9 4 48 16 48 5 0 9 -6 9
-12z m1270 -42 c0 -57 -58 -87 -93 -48 -18 20 -34 74 -21 71 17 -4 84 13 90
23 10 15 24 -13 24 -46z m65 -17 c-3 -10 1 -31 9 -46 8 -16 12 -40 9 -55 -3
-14 0 -35 6 -46 8 -15 8 -28 0 -46 -10 -20 -9 -30 4 -49 14 -21 14 -24 -1 -33
-11 -7 -16 -24 -15 -49 1 -22 -5 -45 -14 -53 -8 -9 -13 -27 -11 -42 3 -19 -2
-31 -14 -39 -11 -7 -18 -23 -18 -41 0 -20 -8 -35 -25 -46 -15 -10 -25 -26 -25
-40 0 -17 -7 -25 -24 -30 -17 -4 -27 -15 -31 -36 -4 -16 -13 -32 -21 -35 -24
-9 -26 2 -4 30 21 27 26 62 10 72 -18 11 -10 22 13 18 25 -5 57 19 57 41 0 7
-8 21 -18 32 -10 10 -27 37 -38 59 -20 39 -20 41 -3 105 10 37 18 103 18 153
1 74 4 88 19 93 50 15 68 31 82 76 11 36 18 44 28 36 7 -6 10 -19 7 -29z
m-1194 -81 c-13 -5 -17 -14 -13 -37 2 -17 8 -31 13 -31 5 0 6 -7 2 -16 -3 -9
-9 -11 -12 -6 -3 5 -30 23 -59 39 l-52 30 62 25 c42 16 65 21 70 14 4 -6 -1
-14 -11 -18z m1017 -369 c1 -36 17 -59 43 -59 21 0 24 -11 8 -27 -8 -8 -16 -6
-30 8 -18 18 -22 18 -53 5 -34 -14 -46 -12 -46 8 0 6 12 12 26 12 35 3 40 10
27 44 -9 24 -8 30 6 33 9 3 16 5 17 6 1 0 1 -13 2 -30z m-944 -43 c-10 -25
-43 -30 -66 -10 -19 18 -20 18 -33 1 -12 -16 -13 -16 -19 -1 -4 9 -5 17 -4 18
2 1 26 12 53 26 l50 26 12 -23 c7 -12 10 -28 7 -37z m36 -37 c0 -4 -10 -9 -22
-13 -22 -5 -22 -6 -5 -23 17 -17 19 -17 33 2 12 17 16 18 24 5 6 -10 1 -19
-19 -31 -16 -10 -36 -28 -45 -41 -13 -19 -18 -20 -25 -9 -6 10 -3 20 11 31 22
17 18 40 -7 40 -8 0 -19 -8 -24 -17 -9 -16 -12 -16 -20 -3 -8 11 -6 17 7 21 9
4 31 20 47 35 26 26 44 26 45 3z m852 -39 c18 -16 38 -30 45 -30 16 0 17 -12
2 -27 -9 -9 -16 -6 -30 10 -15 18 -20 20 -31 9 -11 -11 -9 -16 9 -31 14 -12
18 -22 12 -28 -7 -7 -21 1 -42 22 -18 17 -39 34 -47 37 -12 4 -13 8 -3 19 11
11 15 10 27 -6 12 -17 16 -17 31 -5 16 13 16 15 -4 31 -11 9 -17 19 -14 23 9
9 9 9 45 -24z m-748 -62 c22 -30 20 -54 -5 -79 -27 -27 -66 -21 -92 12 -16 23
-17 30 -7 50 17 31 29 39 62 39 17 0 33 -9 42 -22z m660 6 c18 -7 22 -49 5
-59 -7 -5 -5 -13 6 -25 14 -15 14 -18 0 -30 -12 -10 -15 -10 -15 3 0 9 -15 32
-34 52 -34 35 -34 35 -13 50 24 17 29 18 51 9z m-577 -58 c18 -9 39 -16 48
-16 9 0 15 -6 12 -12 -5 -13 -11 -14 -38 -3 -17 7 -54 -59 -43 -77 5 -8 1 -9
-10 -5 -10 4 -19 7 -21 7 -2 0 5 18 16 40 24 49 24 60 -1 60 -22 0 -23 1 -14
25 4 9 10 12 13 7 3 -5 20 -17 38 -26z m-244 10 c25 -19 21 -34 -8 -28 -16 3
-25 11 -25 23 0 22 8 23 33 5z m749 -52 c15 -12 33 -24 40 -27 10 -4 10 -7 -1
-18 -10 -11 -15 -11 -18 -1 -3 6 -10 12 -16 12 -18 0 -46 -31 -40 -46 3 -8 -1
-14 -11 -14 -13 0 -16 12 -16 71 0 79 -5 77 62 23z m174 0 c-15 -33 -52 -33
-52 0 0 20 5 24 32 24 29 0 31 -1 20 -24z m-526 -14 c24 -24 25 -48 4 -78 -31
-44 -104 -20 -104 35 0 57 61 82 100 43z m224 -16 c-1 -24 4 -35 22 -45 13 -7
24 -16 24 -21 0 -15 -23 -8 -47 14 -26 25 -40 19 -24 -10 9 -16 7 -21 -10 -25
-16 -4 -19 -2 -14 13 3 10 -1 36 -8 59 -16 44 -11 51 33 48 21 -2 25 -7 24
-33z m-100 20 c9 -3 16 -12 16 -20 0 -12 -4 -12 -20 -2 -27 17 -54 0 -58 -36
-3 -20 2 -28 20 -35 27 -10 38 -6 38 15 0 8 -4 12 -10 9 -5 -3 -10 1 -10 9 0
9 9 16 20 16 16 0 20 -7 20 -30 0 -38 -30 -56 -62 -39 -44 23 -51 66 -18 99
21 21 37 24 64 14z m-362 -49 c4 -21 1 -25 -17 -25 -26 0 -42 29 -23 42 23 14
36 9 40 -17z m121 -52 c15 -30 15 -34 3 -24 -9 8 -31 11 -51 9 -40 -5 -44 6
-12 33 31 26 40 24 60 -18z m457 -22 c0 -12 -39 -25 -48 -16 -7 7 17 25 36 25
6 0 12 -4 12 -9z"/>
<path d="M1572 1710 c-16 -27 -15 -30 8 -30 21 0 26 16 12 37 -6 9 -11 7 -20
-7z"/>
<path d="M1260 1670 c0 -29 2 -31 18 -19 9 7 18 14 20 15 1 0 -7 9 -18 19 -20
18 -20 17 -20 -15z"/>
<path d="M1351 1535 c-83 -24 -135 -49 -181 -91 -95 -86 -150 -211 -150 -343
0 -139 46 -246 144 -339 244 -231 643 -133 758 187 28 77 30 208 4 276 -51
134 -159 248 -284 296 -74 29 -214 35 -291 14z m228 -6 c206 -47 354 -238 350
-449 l-2 -65 -7 85 c-4 47 -14 104 -22 127 -78 220 -310 346 -531 288 -83 -21
-133 -50 -201 -114 -48 -45 -54 -48 -30 -18 91 118 287 182 443 146z m72 -67
c124 -61 202 -154 235 -282 34 -133 1 -266 -91 -367 -97 -108 -199 -149 -344
-140 -93 5 -147 24 -219 77 -70 50 -85 69 -71 86 10 12 10 17 0 27 -10 9 -11
9 -6 -4 4 -10 0 -16 -10 -16 -22 0 -70 98 -86 175 -34 163 61 355 212 432 86
44 111 50 215 47 90 -2 107 -6 165 -35z"/>
<path d="M1382 1445 c-76 -21 -109 -41 -167 -99 -55 -56 -106 -145 -104 -185
1 -25 1 -24 8 4 13 50 50 115 92 159 22 22 43 41 47 41 4 1 32 14 62 30 77 40
199 47 283 15 82 -31 166 -114 197 -195 49 -128 23 -268 -68 -367 -22 -24 -40
-47 -40 -53 1 -16 -89 -58 -151 -71 l-56 -12 45 -1 c25 0 62 6 82 13 39 14
122 75 114 83 -3 3 10 24 28 47 60 74 79 123 84 216 5 104 -18 175 -82 253
-84 104 -248 157 -374 122z"/>
<path d="M1607 1372 c17 -15 51 -43 75 -63 76 -64 112 -168 95 -279 -10 -66
-42 -124 -96 -173 -70 -63 -95 -72 -201 -72 -87 0 -100 3 -149 30 -178 99
-216 341 -74 483 24 24 42 47 39 50 -16 16 -108 -107 -127 -170 -5 -18 -10
-64 -10 -102 0 -227 239 -377 448 -282 179 81 246 297 143 459 -29 46 -142
147 -163 147 -7 0 2 -13 20 -28z"/>
<path d="M1540 1353 c0 -5 7 -16 14 -26 16 -20 30 -8 20 17 -6 16 -34 23 -34
9z"/>
<path d="M1570 1292 c0 -5 7 -15 15 -22 8 -7 15 -9 15 -5 0 5 9 0 20 -10 11
-10 20 -15 20 -10 0 8 -23 29 -52 46 -10 5 -18 6 -18 1z"/>
<path d="M1409 1240 l-24 -20 33 16 c73 35 177 -10 207 -90 24 -62 14 -107
-34 -159 -35 -37 -43 -41 -97 -45 -73 -5 -118 21 -152 88 -26 51 -23 93 9 148
12 22 15 32 7 30 -7 -2 -24 -25 -37 -51 -31 -62 -23 -122 21 -173 42 -48 77
-64 139 -64 97 0 164 60 175 157 7 63 -25 127 -81 159 -53 30 -133 32 -166 4z"/>
<path d="M1454 1199 c-4 -7 4 -10 22 -8 34 4 57 -8 48 -23 -5 -7 -2 -8 6 -3 9
6 21 -1 37 -21 28 -36 31 -13 2 27 -17 24 -18 28 -3 22 9 -3 25 -24 35 -47 10
-23 19 -34 19 -25 0 9 -10 31 -22 49 -21 30 -28 34 -80 36 -33 2 -60 -1 -64
-7z"/>
<path d="M1260 1179 c-36 -66 -18 -184 37 -250 86 -102 258 -105 349 -7 27 30
26 29 -15 -5 -75 -62 -160 -73 -247 -33 -108 50 -159 168 -120 279 15 41 13
48 -4 16z"/>
<path d="M1436 1141 c-17 -19 -17 -19 5 -14 20 5 21 3 15 -20 -5 -20 -2 -29
14 -37 16 -8 22 -7 32 10 17 26 36 25 41 -2 3 -17 5 -14 6 10 1 37 -7 40 -42
12 -33 -26 -37 -25 -37 8 0 43 -13 56 -34 33z"/>
<path d="M1340 1072 c-1 -90 109 -148 205 -108 34 15 75 67 75 96 -1 8 -7 2
-14 -15 -7 -16 -26 -41 -41 -55 -22 -21 -36 -25 -86 -25 -50 1 -63 5 -85 26
-14 14 -31 43 -39 65 -10 28 -14 33 -15 16z"/>
<path d="M1360 1073 c0 -10 9 -29 20 -43 23 -30 26 -20 5 19 -8 16 -11 31 -8
35 4 3 1 6 -5 6 -7 0 -12 -8 -12 -17z"/>
<path d="M1553 1024 c-24 -24 -38 -44 -33 -44 13 0 66 52 73 73 8 22 9 23 -40
-29z"/>
<path d="M1121 1038 c-2 -50 39 -136 90 -193 71 -77 138 -108 243 -111 l81 -3
-80 8 c-163 16 -282 118 -321 276 -9 35 -13 42 -13 23z"/>
<path d="M1439 1040 c28 -24 50 -25 77 -5 18 14 17 15 -8 4 -21 -9 -33 -8 -60
5 l-33 16 24 -20z"/>
<path d="M2028 1316 c-42 -11 -46 -17 -22 -40 29 -29 68 -13 62 25 -3 22 -5
23 -40 15z"/>
<path d="M990 820 c-12 -7 -12 -12 -2 -22 9 -9 15 -9 24 0 16 16 -2 34 -22 22z"/>
<path d="M2082 1689 c-34 -26 -49 -44 -46 -54 4 -8 9 -15 12 -15 16 0 112 74
112 85 0 27 -29 21 -78 -16z"/>
<path d="M2365 1470 c-82 -61 -151 -113 -152 -117 -2 -5 1 -14 6 -22 7 -10 45
13 167 101 148 107 181 140 144 145 -8 1 -82 -47 -165 -107z"/>
<path d="M916 432 c-82 -59 -98 -78 -73 -88 15 -5 187 110 187 126 0 6 -25 21
-33 20 -1 0 -38 -26 -81 -58z"/>
</g>
</svg>
