<?xml version="1.0" standalone="no"?>
<!DOCTYPE svg PUBLIC "-//W3C//DTD SVG 20010904//EN"
 "http://www.w3.org/TR/2001/REC-SVG-20010904/DTD/svg10.dtd">
<svg version="1.0" xmlns="http://www.w3.org/2000/svg"
 width="500.000000pt" height="500.000000pt" viewBox="0 0 500.000000 500.000000"
 preserveAspectRatio="xMidYMid meet">
<metadata>
Created by potrace 1.16, written by Peter Selinger 2001-2019
</metadata>
<g transform="translate(0.000000,500.000000) scale(0.100000,-0.100000)"
fill="#000000" stroke="none">
<path d="M2258 4255 c-668 -91 -1231 -563 -1442 -1206 -118 -361 -114 -763 10
-1127 150 -439 479 -810 899 -1013 256 -124 494 -179 777 -179 661 0 1258 364
1569 955 296 561 258 1268 -96 1795 -289 429 -737 709 -1242 775 -137 18 -342
18 -475 0z m362 -886 c83 -38 124 -96 141 -200 14 -88 0 -126 -81 -220 -70
-81 -92 -127 -92 -196 0 -18 -5 -33 -11 -33 -6 0 -4 -6 5 -12 11 -9 14 -24 11
-48 l-5 -35 -105 5 c-86 4 -107 9 -118 24 -8 10 -11 24 -8 32 3 8 0 14 -7 14
-10 0 -10 3 0 15 7 8 20 15 29 15 9 0 12 3 6 8 -5 4 -11 40 -12 81 -2 67 -7
85 -59 194 -66 138 -78 200 -49 261 20 43 68 82 122 102 59 21 180 17 233 -7z
m-1300 -1059 l0 -130 -40 0 -40 0 0 123 c0 68 3 127 7 130 3 4 21 7 40 7 l33
0 0 -130z m505 86 c42 -32 68 -88 73 -156 11 -172 -192 -277 -318 -164 -96 87
-90 252 10 324 61 44 175 41 235 -4z m205 -49 l5 -89 73 91 c72 90 73 91 117
91 25 0 45 -3 45 -7 0 -3 -36 -51 -81 -105 l-81 -99 72 -85 c40 -46 76 -87 81
-90 22 -13 5 -24 -39 -24 -47 0 -48 1 -107 72 l-58 72 -54 -59 -53 -58 0 192
0 192 38 -3 37 -3 5 -88z m428 23 l49 -69 22 29 c18 26 28 30 66 30 25 0 45
-3 45 -6 0 -3 -20 -34 -45 -68 l-45 -64 0 -96 0 -96 -40 0 -40 0 0 93 0 93
-75 106 c-41 58 -75 108 -75 112 0 3 20 6 44 6 44 0 46 -1 94 -70z m472 30 l0
-40 -120 0 -120 0 0 40 0 40 120 0 120 0 0 -40z m238 -2 l3 -38 -60 0 -61 0 0
-45 0 -45 86 0 85 0 -3 -37 -3 -38 -82 -3 -83 -3 0 -39 0 -40 60 0 60 0 0 -40
0 -40 -100 0 -100 0 0 198 c0 109 3 202 7 206 4 4 48 5 98 4 l90 -3 3 -37z
m400 -45 l3 -83 -41 0 -40 0 0 45 c0 42 -2 45 -26 45 -14 0 -42 -8 -61 -17
-71 -33 -85 -151 -24 -205 29 -26 38 -28 111 -28 l80 0 0 -40 0 -40 -68 0
c-116 0 -187 34 -222 106 -34 70 -23 180 24 232 42 47 121 72 216 69 l45 -2 3
-82z m352 -118 l0 -205 -40 0 c-39 0 -40 1 -40 35 l0 35 -75 0 -75 0 0 -35 c0
-34 -1 -35 -40 -35 l-40 0 0 75 0 75 115 0 115 0 0 123 c0 68 3 127 7 130 3 4
21 7 40 7 l33 0 0 -205z m-1070 -75 l0 -130 -40 0 -40 0 0 130 0 130 40 0 40
0 0 -130z m-1380 -90 l0 -40 -115 0 -115 0 0 33 c0 19 3 37 7 40 3 4 55 7 115
7 l108 0 0 -40z"/>
<path d="M1653 2350 c-58 -24 -82 -132 -43 -195 19 -31 62 -55 97 -55 33 0 82
33 97 65 55 116 -38 230 -151 185z"/>
</g>
</svg>
